<mxfile host="app.diagrams.net" modified="2022-06-14T08:28:05.792Z" agent="5.0 (Windows NT 10.0; Win64; x64) AppleWebKit/537.36 (KHTML, like Gecko) Chrome/85.0.4183.121 Safari/537.36 OPR/71.0.3770.271" etag="yGP3LliqyJeVILwTJDj-" version="20.0.1" type="github">
  <diagram id="Mc6Aq-rCgRCbNOoT8Rrk" name="Page-1">
    <mxGraphModel dx="1626" dy="935" grid="1" gridSize="10" guides="1" tooltips="1" connect="1" arrows="1" fold="1" page="1" pageScale="1" pageWidth="827" pageHeight="1169" math="0" shadow="0">
      <root>
        <mxCell id="0" />
        <mxCell id="1" parent="0" />
        <mxCell id="MA7L2x5hjROUiLYcTf8r-1" value="UsersModule" style="shape=module;align=left;spacingLeft=20;align=center;verticalAlign=top;" vertex="1" parent="1">
          <mxGeometry x="9" y="530" width="911" height="190" as="geometry" />
        </mxCell>
        <mxCell id="MA7L2x5hjROUiLYcTf8r-2" value="AuthModule" style="shape=module;align=left;spacingLeft=20;align=center;verticalAlign=top;" vertex="1" parent="1">
          <mxGeometry x="8" y="260" width="912" height="240" as="geometry" />
        </mxCell>
        <mxCell id="MA7L2x5hjROUiLYcTf8r-3" value="«interface»&lt;br&gt;&lt;b&gt;IAuthService&lt;/b&gt;" style="html=1;" vertex="1" parent="1">
          <mxGeometry x="198" y="320" width="110" height="50" as="geometry" />
        </mxCell>
        <mxCell id="MA7L2x5hjROUiLYcTf8r-14" style="edgeStyle=orthogonalEdgeStyle;rounded=0;orthogonalLoop=1;jettySize=auto;html=1;endArrow=open;endFill=0;startSize=10;endSize=10;" edge="1" parent="1" source="MA7L2x5hjROUiLYcTf8r-4" target="MA7L2x5hjROUiLYcTf8r-3">
          <mxGeometry relative="1" as="geometry" />
        </mxCell>
        <mxCell id="MA7L2x5hjROUiLYcTf8r-4" value="AuthController" style="html=1;" vertex="1" parent="1">
          <mxGeometry x="28" y="320" width="110" height="50" as="geometry" />
        </mxCell>
        <mxCell id="MA7L2x5hjROUiLYcTf8r-13" style="edgeStyle=orthogonalEdgeStyle;rounded=0;orthogonalLoop=1;jettySize=auto;html=1;endArrow=block;endFill=0;startSize=10;endSize=10;" edge="1" parent="1" source="MA7L2x5hjROUiLYcTf8r-5" target="MA7L2x5hjROUiLYcTf8r-3">
          <mxGeometry relative="1" as="geometry" />
        </mxCell>
        <mxCell id="MA7L2x5hjROUiLYcTf8r-15" style="edgeStyle=orthogonalEdgeStyle;rounded=0;orthogonalLoop=1;jettySize=auto;html=1;endArrow=open;endFill=0;startSize=10;endSize=10;" edge="1" parent="1" source="MA7L2x5hjROUiLYcTf8r-5" target="MA7L2x5hjROUiLYcTf8r-7">
          <mxGeometry relative="1" as="geometry" />
        </mxCell>
        <mxCell id="MA7L2x5hjROUiLYcTf8r-16" style="edgeStyle=orthogonalEdgeStyle;rounded=0;orthogonalLoop=1;jettySize=auto;html=1;endArrow=open;endFill=0;startSize=10;endSize=10;" edge="1" parent="1" source="MA7L2x5hjROUiLYcTf8r-5" target="MA7L2x5hjROUiLYcTf8r-10">
          <mxGeometry relative="1" as="geometry">
            <Array as="points">
              <mxPoint x="414" y="450" />
              <mxPoint x="584" y="450" />
            </Array>
          </mxGeometry>
        </mxCell>
        <mxCell id="MA7L2x5hjROUiLYcTf8r-5" value="AuthService" style="html=1;" vertex="1" parent="1">
          <mxGeometry x="359" y="320" width="110" height="50" as="geometry" />
        </mxCell>
        <mxCell id="MA7L2x5hjROUiLYcTf8r-7" value="«interface»&lt;br&gt;&lt;b&gt;ITokensHelper&lt;/b&gt;" style="html=1;" vertex="1" parent="1">
          <mxGeometry x="529" y="320" width="110" height="50" as="geometry" />
        </mxCell>
        <mxCell id="MA7L2x5hjROUiLYcTf8r-8" style="edgeStyle=orthogonalEdgeStyle;rounded=0;orthogonalLoop=1;jettySize=auto;html=1;endArrow=block;endFill=0;endSize=10;startSize=10;" edge="1" source="MA7L2x5hjROUiLYcTf8r-9" target="MA7L2x5hjROUiLYcTf8r-7" parent="1">
          <mxGeometry relative="1" as="geometry" />
        </mxCell>
        <mxCell id="MA7L2x5hjROUiLYcTf8r-33" style="edgeStyle=orthogonalEdgeStyle;rounded=0;orthogonalLoop=1;jettySize=auto;html=1;fontSize=19;endArrow=open;endFill=0;startSize=10;endSize=10;" edge="1" parent="1" source="MA7L2x5hjROUiLYcTf8r-9" target="MA7L2x5hjROUiLYcTf8r-30">
          <mxGeometry relative="1" as="geometry" />
        </mxCell>
        <mxCell id="MA7L2x5hjROUiLYcTf8r-34" style="edgeStyle=orthogonalEdgeStyle;rounded=0;orthogonalLoop=1;jettySize=auto;html=1;fontSize=19;endArrow=open;endFill=0;startSize=10;endSize=10;" edge="1" parent="1" source="MA7L2x5hjROUiLYcTf8r-9" target="MA7L2x5hjROUiLYcTf8r-26">
          <mxGeometry relative="1" as="geometry">
            <Array as="points">
              <mxPoint x="950" y="345" />
              <mxPoint x="950" y="600" />
            </Array>
          </mxGeometry>
        </mxCell>
        <mxCell id="MA7L2x5hjROUiLYcTf8r-9" value="TokensHelper" style="html=1;" vertex="1" parent="1">
          <mxGeometry x="698" y="320" width="110" height="50" as="geometry" />
        </mxCell>
        <mxCell id="MA7L2x5hjROUiLYcTf8r-10" value="«interface»&lt;br&gt;&lt;b&gt;IUsersHelper&lt;/b&gt;" style="html=1;" vertex="1" parent="1">
          <mxGeometry x="529" y="600" width="110" height="50" as="geometry" />
        </mxCell>
        <mxCell id="MA7L2x5hjROUiLYcTf8r-11" style="edgeStyle=orthogonalEdgeStyle;rounded=0;orthogonalLoop=1;jettySize=auto;html=1;endArrow=block;endFill=0;endSize=10;startSize=10;" edge="1" source="MA7L2x5hjROUiLYcTf8r-12" target="MA7L2x5hjROUiLYcTf8r-10" parent="1">
          <mxGeometry relative="1" as="geometry" />
        </mxCell>
        <mxCell id="MA7L2x5hjROUiLYcTf8r-35" style="edgeStyle=orthogonalEdgeStyle;rounded=0;orthogonalLoop=1;jettySize=auto;html=1;fontSize=19;endArrow=open;endFill=0;startSize=10;endSize=10;" edge="1" parent="1" source="MA7L2x5hjROUiLYcTf8r-12" target="MA7L2x5hjROUiLYcTf8r-26">
          <mxGeometry relative="1" as="geometry" />
        </mxCell>
        <mxCell id="MA7L2x5hjROUiLYcTf8r-12" value="UserHelper" style="html=1;" vertex="1" parent="1">
          <mxGeometry x="698" y="600" width="110" height="50" as="geometry" />
        </mxCell>
        <mxCell id="MA7L2x5hjROUiLYcTf8r-21" value="" style="endArrow=none;dashed=1;html=1;rounded=0;startSize=10;endSize=10;" edge="1" parent="1">
          <mxGeometry width="50" height="50" relative="1" as="geometry">
            <mxPoint x="340" y="840" as="sourcePoint" />
            <mxPoint x="330" y="130" as="targetPoint" />
          </mxGeometry>
        </mxCell>
        <mxCell id="MA7L2x5hjROUiLYcTf8r-22" value="" style="endArrow=none;dashed=1;html=1;rounded=0;startSize=10;endSize=10;" edge="1" parent="1">
          <mxGeometry width="50" height="50" relative="1" as="geometry">
            <mxPoint x="670" y="830" as="sourcePoint" />
            <mxPoint x="660" y="120" as="targetPoint" />
          </mxGeometry>
        </mxCell>
        <mxCell id="MA7L2x5hjROUiLYcTf8r-23" value="&lt;font style=&quot;font-size: 18px;&quot;&gt;Уровень роутинга&lt;/font&gt;" style="rounded=1;whiteSpace=wrap;html=1;" vertex="1" parent="1">
          <mxGeometry x="70" y="140" width="210" height="80" as="geometry" />
        </mxCell>
        <mxCell id="MA7L2x5hjROUiLYcTf8r-24" value="&lt;font style=&quot;font-size: 19px;&quot;&gt;Уровень сервисов&amp;nbsp;&lt;/font&gt;" style="rounded=1;whiteSpace=wrap;html=1;" vertex="1" parent="1">
          <mxGeometry x="390" y="140" width="210" height="80" as="geometry" />
        </mxCell>
        <mxCell id="MA7L2x5hjROUiLYcTf8r-25" value="&lt;font style=&quot;font-size: 19px;&quot;&gt;Уровень хэлперов&amp;nbsp;&lt;/font&gt;" style="rounded=1;whiteSpace=wrap;html=1;" vertex="1" parent="1">
          <mxGeometry x="690" y="140" width="210" height="80" as="geometry" />
        </mxCell>
        <mxCell id="MA7L2x5hjROUiLYcTf8r-26" value="mongoose" style="shape=module;align=left;spacingLeft=20;align=center;verticalAlign=top;fontSize=19;" vertex="1" parent="1">
          <mxGeometry x="1020" y="575" width="240" height="100" as="geometry" />
        </mxCell>
        <mxCell id="MA7L2x5hjROUiLYcTf8r-27" value="&lt;font style=&quot;font-size: 19px;&quot;&gt;Внешние зависимости&lt;/font&gt;" style="rounded=1;whiteSpace=wrap;html=1;" vertex="1" parent="1">
          <mxGeometry x="1020" y="140" width="210" height="80" as="geometry" />
        </mxCell>
        <mxCell id="MA7L2x5hjROUiLYcTf8r-28" value="" style="endArrow=none;dashed=1;html=1;rounded=0;startSize=10;endSize=10;" edge="1" parent="1">
          <mxGeometry width="50" height="50" relative="1" as="geometry">
            <mxPoint x="980" y="830" as="sourcePoint" />
            <mxPoint x="970" y="120" as="targetPoint" />
          </mxGeometry>
        </mxCell>
        <mxCell id="MA7L2x5hjROUiLYcTf8r-30" value="bcrypt" style="shape=module;align=left;spacingLeft=20;align=center;verticalAlign=top;fontSize=19;" vertex="1" parent="1">
          <mxGeometry x="1020" y="410" width="240" height="100" as="geometry" />
        </mxCell>
      </root>
    </mxGraphModel>
  </diagram>
</mxfile>
